<?xml version="1.0" encoding="UTF-8"?>
<svg xmlns="http://www.w3.org/2000/svg" xmlns:xlink="http://www.w3.org/1999/xlink" width="64px" height="64px" viewBox="0 0 64 64" version="1.1">
<g id="surface1">
<path style=" stroke:none;fill-rule:nonzero;fill:rgb(40%,20%,60%);fill-opacity:1;" d="M 32 0 C 14.398438 0 0 14.398438 0 32 C 0 49.601562 14.398438 64 32 64 C 49.601562 64 64 49.601562 64 32 C 64 14.398438 49.601562 0 32 0 Z M 32 6.855469 C 40.457031 6.855469 47.773438 10.96875 52.34375 17.144531 L 48.914062 20.117188 C 45.03125 14.859375 38.855469 11.429688 32 11.429688 C 23.085938 11.429688 15.542969 17.144531 12.570312 25.144531 L 38.855469 51.429688 C 45.484375 49.144531 50.515625 43.429688 52.117188 36.570312 L 41.144531 36.570312 L 41.144531 32 L 57.144531 32 C 57.144531 43.886719 48.683594 53.941406 37.484375 56.453125 L 7.546875 26.515625 C 10.058594 15.316406 20.113281 6.851562 32 6.851562 Z M 6.855469 32.457031 L 31.773438 57.144531 C 25.375 56.914062 18.96875 54.628906 14.171875 49.828125 C 9.371094 45.03125 6.855469 38.625 6.855469 32.457031 Z M 6.855469 32.457031 "/>
</g>
</svg>
