<svg id="SvgjsSvg1001" width="288" height="288" xmlns="http://www.w3.org/2000/svg" version="1.1" xmlns:xlink="http://www.w3.org/1999/xlink" xmlns:svgjs="http://svgjs.com/svgjs"><defs id="SvgjsDefs1002"></defs><g id="SvgjsG1008"><svg xmlns="http://www.w3.org/2000/svg" width="288" height="288"><path fill="#3d5afe" d="M10 .242c-5.523 0-10 4.477-10 10a9.995 9.995 0 0 0 6.836 9.488c.5.094.684-.214.684-.48 0-.238-.008-.867-.012-1.7-2.781.602-3.367-1.343-3.367-1.343-.457-1.152-1.114-1.46-1.114-1.46-.906-.622.07-.61.07-.61 1.005.07 1.532 1.031 1.532 1.031.89 1.531 2.34 1.09 2.914.832.09-.648.348-1.086.633-1.336-2.223-.25-4.555-1.113-4.555-4.945 0-1.09.387-1.98 1.027-2.68-.113-.254-.449-1.27.086-2.648 0 0 .84-.27 2.754 1.027a9.349 9.349 0 0 1 5 0c1.899-1.297 2.739-1.027 2.739-1.027.535 1.379.195 2.394.097 2.648.637.7 1.024 1.59 1.024 2.68 0 3.844-2.336 4.687-4.559 4.937.348.297.672.91.672 1.848 0 1.34-.012 2.414-.012 2.738 0 .262.176.574.688.477A9.969 9.969 0 0 0 20 10.242c0-5.523-4.477-10-10-10" class="color4a61dd svgShape"></path></svg></g></svg>