<?xml version="1.0" encoding="UTF-8"?>
<svg xmlns="http://www.w3.org/2000/svg" xmlns:xlink="http://www.w3.org/1999/xlink" width="64px" height="64px" viewBox="0 0 64 64" version="1.1">
<g id="surface1">
<path style=" stroke:none;fill-rule:nonzero;fill:rgb(25.882353%,52.156863%,95.686275%);fill-opacity:1;" d="M 33.300781 29.167969 L 33.300781 37.769531 L 54.75 37.769531 C 54.09375 42.59375 52.417969 46.125 49.863281 48.605469 C 46.722656 51.613281 41.835938 54.898438 33.300781 54.898438 C 20.09375 54.898438 9.769531 44.691406 9.769531 32.035156 C 9.769531 19.375 20.09375 9.167969 33.300781 9.167969 C 40.414062 9.167969 45.632812 11.863281 49.460938 15.324219 L 55.773438 9.273438 C 50.449219 4.308594 43.296875 0.535156 33.300781 0.535156 C 15.207031 0.535156 -0.0078125 14.660156 -0.0078125 32 C -0.0078125 49.339844 15.207031 63.464844 33.300781 63.464844 C 43.078125 63.464844 50.449219 60.390625 56.210938 54.65625 C 62.121094 48.992188 63.980469 40.984375 63.980469 34.550781 C 63.980469 32.558594 63.835938 30.703125 63.507812 29.167969 Z M 33.300781 29.167969 "/>
</g>
</svg>
