<?xml version="1.0" encoding="UTF-8"?>
<svg xmlns="http://www.w3.org/2000/svg" xmlns:xlink="http://www.w3.org/1999/xlink" width="75px" height="75px" viewBox="0 0 75 75" version="1.1">
<g id="surface1">
<path style=" stroke:none;fill-rule:nonzero;fill:rgb(96.862745%,87.45098%,11.764706%);fill-opacity:1;" d="M 0 0 L 75 0 L 75 75 L 0 75 Z M 68.855469 57.113281 C 68.308594 53.691406 66.082031 50.816406 59.472656 48.132812 C 57.171875 47.054688 54.617188 46.304688 53.855469 44.570312 C 53.570312 43.539062 53.527344 42.976562 53.710938 42.367188 C 54.179688 40.351562 56.570312 39.742188 58.445312 40.304688 C 59.664062 40.679688 60.789062 41.617188 61.496094 43.117188 C 64.726562 41.007812 64.726562 41.007812 66.980469 39.601562 C 66.136719 38.289062 65.71875 37.726562 65.148438 37.164062 C 63.179688 34.960938 60.558594 33.835938 56.292969 33.933594 L 54.089844 34.210938 C 51.976562 34.726562 49.964844 35.851562 48.746094 37.351562 C 45.183594 41.386719 46.210938 48.417969 50.523438 51.324219 C 54.789062 54.511719 61.027344 55.210938 61.824219 58.214844 C 62.574219 61.871094 59.105469 63.042969 55.679688 62.621094 C 53.148438 62.058594 51.742188 60.789062 50.195312 58.445312 L 44.476562 61.730469 C 45.132812 63.230469 45.882812 63.882812 47.007812 65.195312 C 52.445312 70.683594 66.039062 70.402344 68.480469 62.058594 C 68.570312 61.777344 69.230469 59.855469 68.710938 56.902344 Z M 40.785156 34.472656 L 33.757812 34.472656 C 33.757812 40.527344 33.730469 46.546875 33.730469 52.613281 C 33.730469 56.460938 33.929688 59.996094 33.300781 61.085938 C 32.269531 63.238281 29.613281 62.960938 28.40625 62.585938 C 27.167969 61.972656 26.539062 61.128906 25.8125 59.914062 C 25.617188 59.585938 25.46875 59.300781 25.414062 59.300781 L 19.710938 62.816406 C 20.664062 64.785156 22.054688 66.476562 23.851562 67.554688 C 26.523438 69.148438 30.113281 69.664062 33.871094 68.820312 C 36.320312 68.117188 38.429688 66.664062 39.53125 64.414062 C 41.125 61.507812 40.789062 57.945312 40.773438 53.957031 C 40.808594 47.539062 40.773438 41.117188 40.773438 34.648438 Z M 40.785156 34.472656 "/>
</g>
</svg>
