<?xml version="1.0" encoding="UTF-8"?>
<svg xmlns="http://www.w3.org/2000/svg" xmlns:xlink="http://www.w3.org/1999/xlink" width="64px" height="57px" viewBox="0 0 63 57" version="1.1">
<g id="surface1">
<path style=" stroke:none;fill-rule:nonzero;fill:rgb(38.039216%,85.490196%,98.431373%);fill-opacity:1;" d="M 37.355469 28.507812 C 37.355469 31.792969 34.726562 34.457031 31.488281 34.457031 C 28.246094 34.457031 25.617188 31.792969 25.617188 28.507812 C 25.617188 25.21875 28.242188 22.554688 31.484375 22.554688 C 34.726562 22.554688 37.355469 25.21875 37.355469 28.507812 Z M 44.304688 0.0546875 C 40.773438 0.0546875 36.148438 2.609375 31.472656 7.035156 C 26.800781 2.632812 22.175781 0.109375 18.644531 0.109375 C 17.570312 0.109375 16.589844 0.355469 15.742188 0.847656 C 12.132812 2.957031 11.324219 9.535156 13.1875 17.789062 C 5.199219 20.289062 0 24.289062 0 28.507812 C 0 32.738281 5.222656 36.75 13.238281 39.230469 C 11.390625 47.515625 12.214844 54.105469 15.832031 56.210938 C 16.671875 56.710938 17.644531 56.945312 18.722656 56.945312 C 22.253906 56.945312 26.878906 54.390625 31.554688 49.960938 C 36.226562 54.363281 40.851562 56.886719 44.382812 56.886719 C 45.460938 56.886719 46.4375 56.648438 47.285156 56.15625 C 50.894531 54.046875 51.703125 47.472656 49.839844 39.214844 C 57.800781 36.734375 63 32.726562 63 28.507812 C 63 24.273438 57.777344 20.261719 49.761719 17.773438 C 51.609375 9.496094 50.785156 2.90625 47.167969 0.792969 C 46.332031 0.304688 45.363281 0.0585938 44.300781 0.0546875 Z M 44.292969 2.957031 L 44.292969 2.972656 C 44.882812 2.972656 45.355469 3.089844 45.757812 3.308594 C 47.503906 4.328125 48.261719 8.195312 47.671875 13.167969 C 47.53125 14.390625 47.300781 15.683594 47.015625 17 C 44.496094 16.371094 41.75 15.890625 38.859375 15.578125 C 37.128906 13.171875 35.328125 10.984375 33.519531 9.066406 C 37.699219 5.128906 41.621094 2.964844 44.292969 2.957031 Z M 18.644531 3.007812 C 21.300781 3.007812 25.246094 5.160156 29.433594 9.078125 C 27.632812 10.992188 25.835938 13.167969 24.132812 15.578125 C 21.226562 15.886719 18.476562 16.371094 15.960938 17.007812 C 15.664062 15.703125 15.449219 14.441406 15.292969 13.230469 C 14.691406 8.257812 15.433594 4.394531 17.167969 3.363281 C 17.667969 3.125 18.21875 3.023438 18.644531 3.011719 Z M 31.460938 11.125 C 32.65625 12.371094 33.847656 13.765625 35.03125 15.289062 C 33.875 15.234375 32.695312 15.199219 31.5 15.199219 C 30.292969 15.199219 29.097656 15.226562 27.929688 15.289062 C 29.085938 13.765625 30.28125 12.371094 31.460938 11.125 Z M 31.5 18.117188 C 33.441406 18.117188 35.378906 18.207031 37.28125 18.363281 C 38.347656 19.914062 39.386719 21.566406 40.386719 23.3125 C 41.363281 25.015625 42.25 26.746094 43.058594 28.492188 C 42.25 30.234375 41.363281 31.980469 40.398438 33.683594 C 39.402344 35.4375 38.371094 37.109375 37.300781 38.660156 C 35.390625 38.828125 33.453125 38.921875 31.5 38.921875 C 29.558594 38.921875 27.621094 38.828125 25.71875 38.671875 C 24.652344 37.125 23.613281 35.46875 22.613281 33.722656 C 21.636719 32.019531 20.75 30.289062 19.941406 28.542969 C 20.738281 26.792969 21.636719 25.050781 22.601562 23.34375 C 23.597656 21.585938 24.628906 19.921875 25.699219 18.371094 C 27.609375 18.199219 29.546875 18.109375 31.5 18.109375 Z M 21.957031 18.792969 C 21.328125 19.796875 20.699219 20.824219 20.109375 21.878906 C 19.519531 22.917969 18.96875 23.960938 18.441406 25.003906 C 17.746094 23.257812 17.15625 21.515625 16.667969 19.820312 C 18.347656 19.421875 20.121094 19.070312 21.957031 18.792969 Z M 41.015625 18.792969 C 42.839844 19.066406 44.597656 19.402344 46.28125 19.820312 C 45.808594 21.503906 45.21875 23.234375 44.550781 24.964844 C 44.023438 23.929688 43.472656 22.882812 42.867188 21.84375 C 42.277344 20.796875 41.648438 19.78125 41.019531 18.792969 Z M 49.054688 20.589844 C 50.328125 20.988281 51.535156 21.433594 52.664062 21.914062 C 57.210938 23.882812 60.152344 26.460938 60.152344 28.503906 C 60.140625 30.546875 57.199219 33.132812 52.652344 35.089844 C 51.550781 35.570312 50.34375 36 49.09375 36.402344 C 48.359375 33.851562 47.398438 31.195312 46.207031 28.472656 C 47.390625 25.765625 48.335938 23.121094 49.054688 20.582031 Z M 13.894531 20.597656 C 14.625 23.152344 15.585938 25.808594 16.78125 28.53125 C 15.601562 31.238281 14.648438 33.878906 13.929688 36.417969 C 12.660156 36.019531 11.453125 35.574219 10.335938 35.089844 C 5.789062 33.125 2.847656 30.546875 2.847656 28.503906 C 2.847656 26.460938 5.789062 23.867188 10.335938 21.914062 C 11.4375 21.433594 12.644531 21.003906 13.894531 20.597656 Z M 44.550781 31.988281 C 45.246094 33.738281 45.835938 35.480469 46.324219 37.175781 C 44.644531 37.59375 42.867188 37.945312 41.03125 38.210938 C 41.660156 37.214844 42.292969 36.183594 42.882812 35.128906 C 43.472656 34.09375 44.023438 33.035156 44.550781 31.988281 Z M 18.441406 32.042969 C 18.96875 33.085938 19.519531 34.128906 20.125 35.171875 C 20.726562 36.207031 21.34375 37.226562 21.972656 38.210938 C 20.148438 37.941406 18.390625 37.601562 16.707031 37.183594 C 17.179688 35.507812 17.773438 33.773438 18.441406 32.039062 Z M 47.039062 39.992188 C 47.335938 41.304688 47.566406 42.570312 47.707031 43.78125 C 48.308594 48.753906 47.566406 52.617188 45.832031 53.648438 C 45.445312 53.890625 44.945312 53.988281 44.355469 53.988281 C 41.699219 53.988281 37.753906 51.84375 33.566406 47.921875 C 35.367188 46.003906 37.164062 43.832031 38.867188 41.425781 C 41.773438 41.113281 44.523438 40.628906 47.039062 39.992188 Z M 15.984375 40.019531 C 18.507812 40.640625 21.253906 41.125 24.140625 41.4375 C 25.875 43.84375 27.671875 46.03125 29.484375 47.945312 C 25.296875 51.894531 21.367188 54.054688 18.695312 54.054688 C 18.117188 54.039062 17.628906 53.921875 17.242188 53.703125 C 15.496094 52.691406 14.738281 48.820312 15.328125 43.847656 C 15.46875 42.621094 15.699219 41.335938 15.984375 40.019531 Z M 27.957031 41.722656 C 29.109375 41.777344 30.292969 41.8125 31.488281 41.8125 C 32.695312 41.8125 33.890625 41.785156 35.058594 41.722656 C 33.902344 43.246094 32.707031 44.636719 31.527344 45.886719 C 30.332031 44.636719 29.136719 43.246094 27.957031 41.722656 Z M 27.957031 41.722656 "/>
</g>
</svg>
