<?xml version="1.0" encoding="UTF-8"?>
<svg xmlns="http://www.w3.org/2000/svg" xmlns:xlink="http://www.w3.org/1999/xlink" width="75px" height="75px" viewBox="0 0 75 75" version="1.1">
<g id="surface1">
<path style=" stroke:none;fill-rule:nonzero;fill:rgb(47.843137%,70.980392%,36.078431%);fill-opacity:1;" d="M 47.929688 74.933594 L 70.476562 70.054688 C 70.476562 70.054688 62.339844 15.015625 62.273438 14.648438 C 62.21875 14.289062 61.917969 14.050781 61.617188 14.050781 C 61.3125 14.050781 55.585938 13.625 55.585938 13.625 C 55.585938 13.625 51.601562 9.644531 51.089844 9.214844 C 50.949219 9.101562 50.855469 9.039062 50.710938 8.984375 L 47.855469 74.933594 Z M 36.59375 35.328125 C 36.59375 35.328125 34.0625 34.003906 31.050781 34.003906 C 26.527344 34.003906 26.351562 36.835938 26.351562 37.570312 C 26.351562 41.417969 36.476562 42.929688 36.476562 52.035156 C 36.476562 59.207031 31.976562 63.785156 25.832031 63.785156 C 18.476562 63.785156 14.769531 59.207031 14.769531 59.207031 L 16.789062 52.6875 C 16.789062 52.6875 20.679688 56.019531 23.914062 56.019531 C 26.023438 56.019531 26.960938 54.316406 26.960938 53.105469 C 26.960938 48.046875 18.664062 47.8125 18.664062 39.484375 C 18.558594 32.492188 23.574219 25.683594 33.75 25.683594 C 37.679688 25.683594 39.609375 26.8125 39.609375 26.8125 L 36.65625 35.296875 Z M 34.90625 2.59375 C 35.332031 2.59375 35.753906 2.710938 36.171875 3.015625 C 33.097656 4.46875 29.722656 8.136719 28.335938 15.492188 C 26.285156 16.15625 24.292969 16.757812 22.429688 17.296875 C 24.054688 11.71875 27.972656 2.625 34.90625 2.625 Z M 38.765625 11.808594 L 38.765625 12.230469 C 36.410156 12.957031 33.820312 13.742188 31.285156 14.53125 C 32.742188 8.976562 35.449219 6.265625 37.800781 5.246094 C 38.402344 6.8125 38.765625 8.921875 38.765625 11.808594 Z M 40.449219 4.828125 C 42.617188 5.058594 44.015625 7.539062 44.914062 10.3125 C 43.824219 10.667969 42.617188 11.035156 41.296875 11.457031 L 41.296875 10.667969 C 41.296875 8.320312 40.996094 6.382812 40.449219 4.820312 Z M 49.800781 8.855469 C 49.738281 8.855469 49.613281 8.921875 49.554688 8.921875 C 49.5 8.921875 48.652344 9.15625 47.324219 9.578125 C 46.003906 5.726562 43.648438 2.171875 39.488281 2.171875 L 39.128906 2.171875 C 37.921875 0.652344 36.464844 0 35.203125 0 C 25.496094 0 20.859375 12.117188 19.40625 18.269531 C 15.675781 19.410156 12.960938 20.257812 12.65625 20.375 C 10.546875 21.039062 10.488281 21.101562 10.242188 23.09375 C 10.007812 24.539062 4.523438 67.039062 4.523438 67.039062 L 46.902344 75 Z M 49.800781 8.855469 "/>
</g>
</svg>
