<?xml version="1.0" encoding="UTF-8"?>
<svg xmlns="http://www.w3.org/2000/svg" xmlns:xlink="http://www.w3.org/1999/xlink" width="20px" height="20px" viewBox="0 0 20 20" version="1.1">
<defs>
<clipPath id="clip1">
  <path d="M 0 0.00390625 L 20 0.00390625 L 20 20 L 0 20 Z M 0 0.00390625 "/>
</clipPath>
</defs>
<g id="surface1">
<g clip-path="url(#clip1)" clip-rule="nonzero">
<path style=" stroke:none;fill-rule:nonzero;fill:rgb(23.921569%,35.294118%,99.607843%);fill-opacity:1;" d="M 10 0.246094 C 4.476562 0.246094 0 4.722656 0 10.246094 C -0.00390625 14.550781 2.75 18.375 6.835938 19.734375 C 7.335938 19.828125 7.519531 19.519531 7.519531 19.253906 C 7.519531 19.015625 7.511719 18.386719 7.507812 17.554688 C 4.726562 18.15625 4.140625 16.210938 4.140625 16.210938 C 3.683594 15.058594 3.027344 14.753906 3.027344 14.753906 C 2.121094 14.128906 3.097656 14.140625 3.097656 14.140625 C 4.101562 14.210938 4.628906 15.171875 4.628906 15.171875 C 5.519531 16.703125 6.96875 16.261719 7.542969 16.003906 C 7.632812 15.355469 7.890625 14.917969 8.175781 14.667969 C 5.953125 14.417969 3.621094 13.554688 3.621094 9.722656 C 3.621094 8.632812 4.007812 7.742188 4.648438 7.042969 C 4.535156 6.789062 4.199219 5.773438 4.734375 4.394531 C 4.734375 4.394531 5.574219 4.125 7.488281 5.421875 C 9.125 4.96875 10.851562 4.96875 12.488281 5.421875 C 14.386719 4.125 15.226562 4.394531 15.226562 4.394531 C 15.761719 5.773438 15.421875 6.789062 15.324219 7.042969 C 15.960938 7.742188 16.347656 8.632812 16.347656 9.722656 C 16.347656 13.566406 14.011719 14.410156 11.789062 14.660156 C 12.136719 14.957031 12.460938 15.570312 12.460938 16.507812 C 12.460938 17.847656 12.449219 18.921875 12.449219 19.246094 C 12.449219 19.507812 12.625 19.820312 13.136719 19.722656 C 17.234375 18.382812 20 14.558594 20 10.246094 C 20 4.722656 15.523438 0.246094 10 0.246094 "/>
</g>
</g>
</svg>
