<svg id="SvgjsSvg1001" width="288" height="288" xmlns="http://www.w3.org/2000/svg" version="1.1" xmlns:xlink="http://www.w3.org/1999/xlink" xmlns:svgjs="http://svgjs.com/svgjs"><defs id="SvgjsDefs1002"></defs><g id="SvgjsG1008"><svg xmlns="http://www.w3.org/2000/svg" width="288" height="288"><path fill="#3d5afe" d="M17.04 17.043h-2.962v-4.64c0-1.106-.023-2.532-1.543-2.532-1.547 0-1.781 1.203-1.781 2.45v4.722H7.793V7.5h2.844v1.3h.039c.398-.75 1.363-1.542 2.808-1.542 3 0 3.555 1.976 3.555 4.547ZM4.444 6.195a1.72 1.72 0 0 1-1.718-1.722 1.72 1.72 0 1 1 1.719 1.723Zm1.489 10.848H2.96V7.5h2.973ZM18.52 0H1.477C.66 0 0 .645 0 1.441V18.56C0 19.355.66 20 1.477 20H18.52c.812 0 1.48-.645 1.48-1.441V1.44C20 .645 19.332 0 18.52 0Zm0 0" class="color4a61dd svgShape"></path></svg></g></svg>