<?xml version="1.0" encoding="UTF-8"?>
<svg xmlns="http://www.w3.org/2000/svg" xmlns:xlink="http://www.w3.org/1999/xlink" width="20px" height="15px" viewBox="0 0 20 15" version="1.1">
<g id="surface1">
<path style=" stroke:none;fill-rule:nonzero;fill:rgb(23.921569%,35.294118%,99.607843%);fill-opacity:1;" d="M 18.460938 0 L 1.539062 0 C 0.695312 0 0 0.695312 0 1.542969 L 0 13.457031 C 0 14.304688 0.695312 15 1.539062 15 L 18.460938 15 C 19.304688 15 20 14.304688 20 13.457031 L 20 1.542969 C 20 0.695312 19.304688 0 18.460938 0 Z M 18.238281 1.140625 L 10.109375 8.09375 L 1.972656 1.140625 Z M 18.863281 13.457031 C 18.863281 13.675781 18.679688 13.859375 18.460938 13.859375 L 1.539062 13.859375 C 1.320312 13.859375 1.136719 13.675781 1.136719 13.457031 L 1.136719 1.921875 L 9.734375 9.277344 C 9.734375 9.28125 9.746094 9.289062 9.75 9.289062 C 9.757812 9.292969 9.765625 9.296875 9.765625 9.300781 C 9.78125 9.3125 9.789062 9.316406 9.800781 9.320312 C 9.804688 9.328125 9.808594 9.328125 9.8125 9.332031 C 9.828125 9.339844 9.847656 9.34375 9.863281 9.355469 C 9.867188 9.355469 9.875 9.359375 9.878906 9.359375 C 9.890625 9.367188 9.902344 9.375 9.921875 9.378906 C 9.921875 9.378906 9.929688 9.378906 9.9375 9.378906 C 9.953125 9.382812 9.960938 9.390625 9.976562 9.390625 C 9.980469 9.390625 9.984375 9.394531 9.992188 9.394531 C 10.003906 9.398438 10.019531 9.398438 10.035156 9.40625 C 10.039062 9.40625 10.042969 9.40625 10.046875 9.40625 C 10.0625 9.40625 10.082031 9.410156 10.101562 9.410156 C 10.117188 9.410156 10.140625 9.410156 10.15625 9.40625 C 10.160156 9.40625 10.164062 9.40625 10.171875 9.40625 C 10.179688 9.40625 10.199219 9.398438 10.210938 9.394531 C 10.214844 9.394531 10.226562 9.390625 10.230469 9.390625 C 10.238281 9.382812 10.253906 9.378906 10.265625 9.378906 C 10.269531 9.378906 10.277344 9.378906 10.28125 9.378906 C 10.292969 9.375 10.308594 9.371094 10.328125 9.359375 C 10.328125 9.359375 10.332031 9.355469 10.335938 9.355469 C 10.355469 9.34375 10.371094 9.339844 10.390625 9.332031 C 10.390625 9.328125 10.394531 9.328125 10.398438 9.320312 C 10.414062 9.316406 10.421875 9.3125 10.433594 9.300781 C 10.4375 9.296875 10.449219 9.292969 10.449219 9.289062 C 10.453125 9.289062 10.464844 9.28125 10.46875 9.277344 L 18.863281 2.109375 Z M 18.863281 13.457031 "/>
</g>
</svg>
