<?xml version="1.0" encoding="UTF-8"?>
<svg xmlns="http://www.w3.org/2000/svg" xmlns:xlink="http://www.w3.org/1999/xlink" width="20px" height="20px" viewBox="0 0 20 20" version="1.1">
<g id="surface1">
<path style=" stroke:none;fill-rule:nonzero;fill:rgb(23.921569%,35.294118%,99.607843%);fill-opacity:1;" d="M 19.785156 15.164062 C 19.042969 13.757812 16.453125 12.234375 16.339844 12.167969 C 16.007812 11.976562 15.664062 11.878906 15.335938 11.878906 C 14.855469 11.878906 14.460938 12.097656 14.222656 12.5 C 13.839844 12.953125 13.371094 13.480469 13.261719 13.5625 C 12.382812 14.160156 11.6875 14.089844 10.925781 13.328125 L 6.667969 9.074219 C 5.914062 8.316406 5.839844 7.617188 6.433594 6.738281 C 6.519531 6.625 7.046875 6.15625 7.5 5.777344 C 7.789062 5.605469 7.984375 5.351562 8.070312 5.039062 C 8.1875 4.621094 8.101562 4.132812 7.832031 3.652344 C 7.769531 3.546875 6.238281 0.957031 4.832031 0.214844 C 4.570312 0.0742188 4.273438 0 3.980469 0 C 3.492188 0 3.027344 0.191406 2.683594 0.539062 L 1.742188 1.480469 C 0.253906 2.964844 -0.285156 4.652344 0.140625 6.488281 C 0.492188 8.023438 1.527344 9.652344 3.210938 11.335938 L 8.660156 16.785156 C 10.792969 18.921875 12.824219 20 14.699219 20 C 16.078125 20 17.367188 19.414062 18.519531 18.257812 L 19.460938 17.320312 C 20.03125 16.746094 20.164062 15.882812 19.785156 15.164062 Z M 19.785156 15.164062 "/>
</g>
</svg>
