<?xml version="1.0" encoding="UTF-8"?>
<svg xmlns="http://www.w3.org/2000/svg" xmlns:xlink="http://www.w3.org/1999/xlink" width="64px" height="64px" viewBox="0 0 64 64" version="1.1">
<g id="surface1">
<path style=" stroke:none;fill-rule:nonzero;fill:rgb(12.941176%,45.882353%,60.784314%);fill-opacity:1;" d="M 57.25 18.199219 C 59.492188 22.296875 60.765625 27 60.765625 32 C 60.765625 42.609375 55.015625 51.882812 46.464844 56.867188 L 55.25 31.460938 C 56.890625 27.355469 57.4375 24.070312 57.4375 21.15625 C 57.4375 20.078125 57.367188 19.078125 57.25 18.199219 M 35.96875 18.476562 C 37.691406 18.398438 39.253906 18.199219 39.253906 18.199219 C 40.804688 17.996094 40.625 15.71875 39.074219 15.800781 C 39.074219 15.800781 34.394531 16.160156 31.394531 16.160156 C 28.558594 16.160156 23.792969 15.761719 23.792969 15.761719 C 22.234375 15.679688 22.03125 18.039062 23.59375 18.121094 C 23.59375 18.121094 25.035156 18.28125 26.59375 18.359375 L 31.074219 30.640625 L 24.753906 49.519531 L 14.277344 18.398438 C 16.007812 18.320312 17.566406 18.132812 17.566406 18.132812 C 19.128906 17.933594 18.945312 15.652344 17.394531 15.742188 C 17.394531 15.742188 12.738281 16.113281 9.730469 16.113281 C 9.199219 16.113281 8.5625 16.089844 7.890625 16.070312 C 13.097656 8.398438 21.960938 3.238281 32 3.238281 C 39.492188 3.238281 46.308594 6.097656 51.429688 10.792969 C 51.308594 10.785156 51.1875 10.769531 51.054688 10.769531 C 48.226562 10.769531 46.222656 13.230469 46.222656 15.875 C 46.222656 18.246094 47.589844 20.257812 49.046875 22.625 C 50.144531 24.542969 51.421875 27.003906 51.421875 30.5625 C 51.421875 33.003906 50.476562 35.878906 49.230469 39.839844 L 46.367188 49.398438 L 35.964844 18.441406 Z M 32 60.757812 C 29.175781 60.757812 26.449219 60.347656 23.871094 59.59375 L 32.503906 34.507812 L 41.34375 58.742188 C 41.40625 58.882812 41.476562 59.011719 41.550781 59.136719 C 38.566406 60.1875 35.351562 60.761719 32 60.761719 M 3.230469 32 C 3.230469 27.828125 4.125 23.867188 5.722656 20.292969 L 19.441406 57.890625 C 9.851562 53.226562 3.230469 43.390625 3.230469 32 M 32 0 C 14.359375 0 0 14.359375 0 32 C 0 49.640625 14.359375 64 32 64 C 49.640625 64 64 49.640625 64 32 C 64 14.359375 49.640625 0 32 0 "/>
</g>
</svg>
